<mxfile host="65bd71144e">
    <diagram id="PtA-jnNQpPprkHBg4imZ" name="Page-1">
        <mxGraphModel dx="245" dy="167" grid="1" gridSize="10" guides="1" tooltips="1" connect="1" arrows="1" fold="1" page="1" pageScale="1" pageWidth="850" pageHeight="1100" math="0" shadow="0">
            <root>
                <mxCell id="0"/>
                <mxCell id="1" parent="0"/>
                <mxCell id="2" value="" style="edgeStyle=none;html=1;" edge="1" parent="1" source="3" target="4">
                    <mxGeometry relative="1" as="geometry"/>
                </mxCell>
                <mxCell id="3" value="Начало" style="html=1;dashed=0;whitespace=wrap;shape=mxgraph.dfd.start" vertex="1" parent="1">
                    <mxGeometry x="200" y="80" width="160" height="40" as="geometry"/>
                </mxCell>
                <mxCell id="35" value="" style="edgeStyle=none;html=1;" edge="1" parent="1" source="4" target="19">
                    <mxGeometry relative="1" as="geometry"/>
                </mxCell>
                <mxCell id="4" value="&lt;font style=&quot;font-size: 11px&quot;&gt;Вызов подпрограммы&lt;br&gt;инициализации ребер&lt;br&gt;(присвоение видимости и &lt;br&gt;начальной &lt;br&gt;концентрации ферамона)&lt;/font&gt;" style="html=1;dashed=0;whitespace=wrap;" vertex="1" parent="1">
                    <mxGeometry x="200" y="150" width="160" height="70" as="geometry"/>
                </mxCell>
                <mxCell id="5" value="" style="strokeWidth=2;html=1;shape=mxgraph.flowchart.annotation_2;align=left;labelPosition=right;pointerEvents=1;fillColor=#2a2a2a;rotation=-180;" vertex="1" parent="1">
                    <mxGeometry x="120" y="50" width="50" height="100" as="geometry"/>
                </mxCell>
                <mxCell id="6" value="" style="endArrow=none;dashed=1;html=1;exitX=0;exitY=0.5;exitDx=0;exitDy=0;exitPerimeter=0;entryX=0;entryY=0.5;entryDx=0;entryDy=0;entryPerimeter=0;" edge="1" parent="1" source="5" target="3">
                    <mxGeometry width="50" height="50" relative="1" as="geometry">
                        <mxPoint x="560" y="320" as="sourcePoint"/>
                        <mxPoint x="610" y="270" as="targetPoint"/>
                    </mxGeometry>
                </mxCell>
                <mxCell id="7" value="Матрица &lt;br&gt;смежности&lt;br&gt;alpha&lt;br&gt;beta&lt;br&gt;e&lt;br&gt;Q" style="text;html=1;align=center;verticalAlign=middle;resizable=0;points=[];autosize=1;strokeColor=none;" vertex="1" parent="1">
                    <mxGeometry x="50" y="55" width="80" height="90" as="geometry"/>
                </mxCell>
                <mxCell id="8" value="Конец" style="html=1;dashed=0;whitespace=wrap;shape=mxgraph.dfd.start" vertex="1" parent="1">
                    <mxGeometry x="490" y="970" width="160" height="45" as="geometry"/>
                </mxCell>
                <mxCell id="9" value="" style="edgeStyle=none;html=1;" edge="1" parent="1" source="10" target="8">
                    <mxGeometry relative="1" as="geometry"/>
                </mxCell>
                <mxCell id="10" value="Цикл от 0 до количества дней" style="strokeWidth=2;html=1;shape=mxgraph.flowchart.loop_limit;whiteSpace=wrap;direction=west;" vertex="1" parent="1">
                    <mxGeometry x="490" y="860" width="160" height="70" as="geometry"/>
                </mxCell>
                <mxCell id="11" value="Минимальная ст-ть пути = &lt;br&gt;Текущая ст-ть пути" style="html=1;dashed=0;whitespace=wrap;" vertex="1" parent="1">
                    <mxGeometry x="620" y="520" width="160" height="70" as="geometry"/>
                </mxCell>
                <mxCell id="12" value="Текущая ст-ть пути&amp;nbsp;&lt;br&gt;меньше минимальной?" style="strokeWidth=2;html=1;shape=mxgraph.flowchart.decision;whiteSpace=wrap;fillColor=none;" vertex="1" parent="1">
                    <mxGeometry x="490" y="430" width="160" height="100" as="geometry"/>
                </mxCell>
                <mxCell id="13" value="" style="edgeStyle=none;html=1;" edge="1" parent="1" source="14" target="12">
                    <mxGeometry relative="1" as="geometry"/>
                </mxCell>
                <mxCell id="14" value="Текущая ст-ть пути =&lt;br&gt;стоимость i пути" style="html=1;dashed=0;whitespace=wrap;" vertex="1" parent="1">
                    <mxGeometry x="490" y="330" width="160" height="70" as="geometry"/>
                </mxCell>
                <mxCell id="15" value="" style="endArrow=classic;html=1;exitX=1;exitY=0.5;exitDx=0;exitDy=0;exitPerimeter=0;entryX=0.5;entryY=0;entryDx=0;entryDy=0;" edge="1" parent="1" source="12" target="11">
                    <mxGeometry width="50" height="50" relative="1" as="geometry">
                        <mxPoint x="560" y="580" as="sourcePoint"/>
                        <mxPoint x="610" y="530" as="targetPoint"/>
                        <Array as="points">
                            <mxPoint x="700" y="480"/>
                        </Array>
                    </mxGeometry>
                </mxCell>
                <mxCell id="16" value="" style="endArrow=none;html=1;exitX=0;exitY=0.5;exitDx=0;exitDy=0;exitPerimeter=0;entryX=0.5;entryY=1;entryDx=0;entryDy=0;" edge="1" parent="1" source="12" target="11">
                    <mxGeometry width="50" height="50" relative="1" as="geometry">
                        <mxPoint x="560" y="580" as="sourcePoint"/>
                        <mxPoint x="700" y="620" as="targetPoint"/>
                        <Array as="points">
                            <mxPoint x="450" y="480"/>
                            <mxPoint x="450" y="620"/>
                            <mxPoint x="700" y="620"/>
                        </Array>
                    </mxGeometry>
                </mxCell>
                <mxCell id="17" value="Да" style="text;html=1;align=center;verticalAlign=middle;resizable=0;points=[];autosize=1;strokeColor=none;" vertex="1" parent="1">
                    <mxGeometry x="665" y="450" width="30" height="20" as="geometry"/>
                </mxCell>
                <mxCell id="40" value="" style="edgeStyle=none;html=1;" edge="1" parent="1" source="18" target="22">
                    <mxGeometry relative="1" as="geometry"/>
                </mxCell>
                <mxCell id="18" value="Цикл от 0 до (кол-во городов - 1)" style="strokeWidth=2;html=1;shape=mxgraph.flowchart.loop_limit;whiteSpace=wrap;direction=west;" vertex="1" parent="1">
                    <mxGeometry x="200" y="690" width="160" height="70" as="geometry"/>
                </mxCell>
                <mxCell id="36" value="" style="edgeStyle=none;html=1;" edge="1" parent="1" source="19" target="21">
                    <mxGeometry relative="1" as="geometry"/>
                </mxCell>
                <mxCell id="19" value="Цикл от 0 до количества дней" style="strokeWidth=2;html=1;shape=mxgraph.flowchart.loop_limit;whiteSpace=wrap;direction=east;" vertex="1" parent="1">
                    <mxGeometry x="200" y="265" width="160" height="70" as="geometry"/>
                </mxCell>
                <mxCell id="39" value="" style="edgeStyle=none;html=1;" edge="1" parent="1" source="20" target="18">
                    <mxGeometry relative="1" as="geometry"/>
                </mxCell>
                <mxCell id="20" value="&lt;font style=&quot;font-size: 11px&quot;&gt;Вызов подпрограммы&lt;br&gt;выбора муравьем &lt;br&gt;следущего пути&lt;br&gt;&lt;/font&gt;" style="html=1;dashed=0;whitespace=wrap;" vertex="1" parent="1">
                    <mxGeometry x="200" y="590" width="160" height="70" as="geometry"/>
                </mxCell>
                <mxCell id="37" value="" style="edgeStyle=none;html=1;" edge="1" parent="1" source="21" target="23">
                    <mxGeometry relative="1" as="geometry"/>
                </mxCell>
                <mxCell id="21" value="&lt;font style=&quot;font-size: 11px&quot;&gt;Вызов подпрограммы&lt;br&gt;генерирования списка&lt;br&gt;&amp;nbsp;муравьев&lt;br&gt;&lt;/font&gt;" style="html=1;dashed=0;whitespace=wrap;" vertex="1" parent="1">
                    <mxGeometry x="200" y="370" width="160" height="70" as="geometry"/>
                </mxCell>
                <mxCell id="41" value="" style="edgeStyle=none;html=1;" edge="1" parent="1" source="22" target="28">
                    <mxGeometry relative="1" as="geometry"/>
                </mxCell>
                <mxCell id="22" value="Цикл от 0 до кол-во городов&amp;nbsp;" style="strokeWidth=2;html=1;shape=mxgraph.flowchart.loop_limit;whiteSpace=wrap;direction=east;" vertex="1" parent="1">
                    <mxGeometry x="200" y="790" width="160" height="70" as="geometry"/>
                </mxCell>
                <mxCell id="38" value="" style="edgeStyle=none;html=1;" edge="1" parent="1" source="23" target="20">
                    <mxGeometry relative="1" as="geometry"/>
                </mxCell>
                <mxCell id="23" value="Цикл от 0 до (кол-во городов - 1)" style="strokeWidth=2;html=1;shape=mxgraph.flowchart.loop_limit;whiteSpace=wrap;direction=east;" vertex="1" parent="1">
                    <mxGeometry x="200" y="490" width="160" height="70" as="geometry"/>
                </mxCell>
                <mxCell id="32" value="" style="edgeStyle=none;html=1;" edge="1" parent="1" source="25" target="27">
                    <mxGeometry relative="1" as="geometry"/>
                </mxCell>
                <mxCell id="25" value="Цикл от 0 до кол-во городов&amp;nbsp;" style="strokeWidth=2;html=1;shape=mxgraph.flowchart.loop_limit;whiteSpace=wrap;direction=west;" vertex="1" parent="1">
                    <mxGeometry x="490" y="660" width="160" height="70" as="geometry"/>
                </mxCell>
                <mxCell id="34" value="" style="edgeStyle=none;html=1;" edge="1" parent="1" source="26" target="29">
                    <mxGeometry relative="1" as="geometry"/>
                </mxCell>
                <mxCell id="26" value="Цикл от 0 до кол-во &lt;br&gt;городов" style="strokeWidth=2;html=1;shape=mxgraph.flowchart.loop_limit;whiteSpace=wrap;direction=west;" vertex="1" parent="1">
                    <mxGeometry x="490" y="130" width="160" height="70" as="geometry"/>
                </mxCell>
                <mxCell id="31" value="" style="edgeStyle=none;html=1;" edge="1" parent="1" source="27" target="10">
                    <mxGeometry relative="1" as="geometry"/>
                </mxCell>
                <mxCell id="27" value="&lt;font style=&quot;font-size: 11px&quot;&gt;Вызов подпрограммы&lt;br&gt;пересчета матрицы&lt;br&gt;ферамонов&lt;br&gt;&lt;/font&gt;" style="html=1;dashed=0;whitespace=wrap;" vertex="1" parent="1">
                    <mxGeometry x="490" y="760" width="160" height="70" as="geometry"/>
                </mxCell>
                <mxCell id="28" value="&lt;font style=&quot;font-size: 11px&quot;&gt;Вызов подпрограммы&lt;br&gt;добавления последнего&lt;br&gt;города&lt;br&gt;&lt;/font&gt;" style="html=1;dashed=0;whitespace=wrap;" vertex="1" parent="1">
                    <mxGeometry x="200" y="890" width="160" height="70" as="geometry"/>
                </mxCell>
                <mxCell id="33" value="" style="edgeStyle=none;html=1;" edge="1" parent="1" source="29" target="14">
                    <mxGeometry relative="1" as="geometry"/>
                </mxCell>
                <mxCell id="29" value="Цикл от 0 до кол-во городов&amp;nbsp;" style="strokeWidth=2;html=1;shape=mxgraph.flowchart.loop_limit;whiteSpace=wrap;direction=east;" vertex="1" parent="1">
                    <mxGeometry x="490" y="240" width="160" height="70" as="geometry"/>
                </mxCell>
                <mxCell id="42" value="" style="endArrow=classic;html=1;exitX=0.5;exitY=1;exitDx=0;exitDy=0;entryX=0.5;entryY=1;entryDx=0;entryDy=0;entryPerimeter=0;" edge="1" parent="1" source="28" target="26">
                    <mxGeometry width="50" height="50" relative="1" as="geometry">
                        <mxPoint x="500" y="750" as="sourcePoint"/>
                        <mxPoint x="480" y="370" as="targetPoint"/>
                        <Array as="points">
                            <mxPoint x="280" y="1000"/>
                            <mxPoint x="410" y="1000"/>
                            <mxPoint x="420" y="90"/>
                            <mxPoint x="570" y="90"/>
                        </Array>
                    </mxGeometry>
                </mxCell>
                <mxCell id="43" value="" style="endArrow=classic;html=1;" edge="1" parent="1">
                    <mxGeometry width="50" height="50" relative="1" as="geometry">
                        <mxPoint x="570" y="620" as="sourcePoint"/>
                        <mxPoint x="570" y="660" as="targetPoint"/>
                    </mxGeometry>
                </mxCell>
                <mxCell id="44" value="" style="endArrow=none;html=1;exitX=0.078;exitY=-0.007;exitDx=0;exitDy=0;exitPerimeter=0;" edge="1" parent="1" source="4">
                    <mxGeometry width="50" height="50" relative="1" as="geometry">
                        <mxPoint x="500" y="340" as="sourcePoint"/>
                        <mxPoint x="212" y="220" as="targetPoint"/>
                    </mxGeometry>
                </mxCell>
                <mxCell id="45" value="" style="endArrow=none;html=1;exitX=0.078;exitY=-0.007;exitDx=0;exitDy=0;exitPerimeter=0;" edge="1" parent="1">
                    <mxGeometry width="50" height="50" relative="1" as="geometry">
                        <mxPoint x="350.48" y="149.51" as="sourcePoint"/>
                        <mxPoint x="350" y="220" as="targetPoint"/>
                    </mxGeometry>
                </mxCell>
                <mxCell id="46" value="" style="endArrow=none;html=1;exitX=0.078;exitY=-0.007;exitDx=0;exitDy=0;exitPerimeter=0;" edge="1" parent="1">
                    <mxGeometry width="50" height="50" relative="1" as="geometry">
                        <mxPoint x="210.48000000000002" y="369.51" as="sourcePoint"/>
                        <mxPoint x="210" y="440" as="targetPoint"/>
                    </mxGeometry>
                </mxCell>
                <mxCell id="47" value="" style="endArrow=none;html=1;exitX=0.078;exitY=-0.007;exitDx=0;exitDy=0;exitPerimeter=0;" edge="1" parent="1">
                    <mxGeometry width="50" height="50" relative="1" as="geometry">
                        <mxPoint x="350.48" y="370" as="sourcePoint"/>
                        <mxPoint x="350" y="440.49" as="targetPoint"/>
                    </mxGeometry>
                </mxCell>
                <mxCell id="48" value="" style="endArrow=none;html=1;entryX=0.061;entryY=1.004;entryDx=0;entryDy=0;entryPerimeter=0;" edge="1" parent="1" target="20">
                    <mxGeometry width="50" height="50" relative="1" as="geometry">
                        <mxPoint x="210" y="591" as="sourcePoint"/>
                        <mxPoint x="290" y="580" as="targetPoint"/>
                    </mxGeometry>
                </mxCell>
                <mxCell id="49" value="" style="endArrow=none;html=1;entryX=0.936;entryY=1.01;entryDx=0;entryDy=0;entryPerimeter=0;exitX=0.941;exitY=0.015;exitDx=0;exitDy=0;exitPerimeter=0;" edge="1" parent="1" source="20" target="20">
                    <mxGeometry width="50" height="50" relative="1" as="geometry">
                        <mxPoint x="352" y="591" as="sourcePoint"/>
                        <mxPoint x="290" y="580" as="targetPoint"/>
                    </mxGeometry>
                </mxCell>
                <mxCell id="50" value="" style="endArrow=none;html=1;exitX=0.06;exitY=1.004;exitDx=0;exitDy=0;exitPerimeter=0;entryX=0.06;entryY=0.012;entryDx=0;entryDy=0;entryPerimeter=0;" edge="1" parent="1" source="28" target="28">
                    <mxGeometry width="50" height="50" relative="1" as="geometry">
                        <mxPoint x="240" y="960" as="sourcePoint"/>
                        <mxPoint x="190" y="900" as="targetPoint"/>
                    </mxGeometry>
                </mxCell>
                <mxCell id="51" value="" style="endArrow=none;html=1;exitX=0.941;exitY=1.004;exitDx=0;exitDy=0;exitPerimeter=0;entryX=0.936;entryY=-0.001;entryDx=0;entryDy=0;entryPerimeter=0;" edge="1" parent="1" source="28" target="28">
                    <mxGeometry width="50" height="50" relative="1" as="geometry">
                        <mxPoint x="240" y="960" as="sourcePoint"/>
                        <mxPoint x="290" y="910" as="targetPoint"/>
                    </mxGeometry>
                </mxCell>
                <mxCell id="52" value="" style="endArrow=none;html=1;exitX=0.06;exitY=0.001;exitDx=0;exitDy=0;exitPerimeter=0;entryX=0.056;entryY=0.996;entryDx=0;entryDy=0;entryPerimeter=0;" edge="1" parent="1" source="27" target="27">
                    <mxGeometry width="50" height="50" relative="1" as="geometry">
                        <mxPoint x="520" y="780" as="sourcePoint"/>
                        <mxPoint x="570" y="730" as="targetPoint"/>
                    </mxGeometry>
                </mxCell>
                <mxCell id="53" value="" style="endArrow=none;html=1;exitX=0.941;exitY=-0.006;exitDx=0;exitDy=0;exitPerimeter=0;entryX=0.942;entryY=1.009;entryDx=0;entryDy=0;entryPerimeter=0;" edge="1" parent="1" source="27" target="27">
                    <mxGeometry width="50" height="50" relative="1" as="geometry">
                        <mxPoint x="520" y="780" as="sourcePoint"/>
                        <mxPoint x="570" y="730" as="targetPoint"/>
                    </mxGeometry>
                </mxCell>
            </root>
        </mxGraphModel>
    </diagram>
</mxfile>